{"title":"å®Œç¾Žçš„åœ“åœˆ/Savr&amp;scaron;eni Krug/The Perfect Circle/Savrseni krug(1997","uid":9843399,"size":1992877693,"categoryP":"video","categoryS":"movies","magnet":"?xt=urn:btih:7d885ecb991b8c86fedd71082020a22548630bd0&amp;dn=%E5%AE%8C%E7%BE%8E%E7%9A%84%E5%9C%93%E5%9C%88%2FSavr%26scaron%3Beni+Krug%2FThe+Perfect+Circle%2FSavrseni+krug%281997&amp;tr=udp%3A%2F%2Ftracker.openbittorrent.com%3A80&amp;tr=udp%3A%2F%2Fopen.demonii.com%3A1337&amp;tr=udp%3A%2F%2Ftracker.coppersurfer.tk%3A6969&amp;tr=udp%3A%2F%2Fexodus.desync.com%3A6969","seeders":1,"leechers":0,"uploader":"app1985","files":-1,"time":1396030224,"description":"DVDRip, 720x400, audio:Bosnian , sub: Rus softsub\n\n\n  &lt;a href=&quot;\nhttp://www.imdb.com/title/tt0117555/&quot; rel=&quot;nofollow&quot; target=&quot;_NEW&quot;&gt;\nhttp://www.imdb.com/title/tt0117555/&lt;/a&gt;\n\n &lt;a href=&quot;\nhttp://movie.douban.com/subject/2295605/&quot; rel=&quot;nofollow&quot; target=&quot;_NEW&quot;&gt;\nhttp://movie.douban.com/subject/2295605/&lt;/a&gt;\n\n\n\n\nScreens:\n &lt;a href=&quot;\nhttp://bayimg.com/oANKoaAFA&quot; rel=&quot;nofollow&quot; target=&quot;_NEW&quot;&gt;\nhttp://bayimg.com/oANKoaAFA&lt;/a&gt;\n &lt;a href=&quot;\nhttp://bayimg.com/PaNKkaAfA&quot; rel=&quot;nofollow&quot; target=&quot;_NEW&quot;&gt;\nhttp://bayimg.com/PaNKkaAfA&lt;/a&gt;\n &lt;a href=&quot;\nhttp://bayimg.com/paNkMaAfA&quot; rel=&quot;nofollow&quot; target=&quot;_NEW&quot;&gt;\nhttp://bayimg.com/paNkMaAfA&lt;/a&gt;\n\n\n\nGeneral\nComplete name                  : Savrseni Krug (1997) .avi\nFormat                         : AVI\nFormat/Info                    : Audio Video Interleave\nFile size                      : 1.86 GiB\nDuration                       : 1h 43mn\nOverall bit rate               : 2 561 Kbps\nWriting application            : VirtualDubMod 1.5.4.1 (build 2178/release)\nWriting library                : VirtualDubMod build 2178/release\n\nVideo\nID                             : 0\nFormat                         : MPEG-4 Visual\nFormat profile                 : Advanced Simple@L5\nFormat settings, BVOP          : Yes\nFormat settings, QPel          : No\nFormat settings, GMC           : No warppoints\nFormat settings, Matrix        : Custom\nCodec ID                       : XVID\nCodec ID/Hint                  : XviD\nDuration                       : 1h 43mn\nBit rate                       : 2 107 Kbps\nWidth                          : 720 pixels\nHeight                         : 400 pixels\nDisplay aspect ratio           : 16:9\nFrame rate                     : 25.000 fps\nColor space                    : YUV\nChroma subsampling             : 4:2:0\nBit depth                      : 8 bits\nScan type                      : Progressive\nCompression mode               : Lossy\nBits/(Pixel*Frame)             : 0.293\nStream size                    : 1.53 GiB (82%)\nWriting library                : XviD 58\n\nAudio\nID                             : 1\nFormat                         : AC-3\nFormat/Info                    : Audio Coding 3\nMode extension                 : CM (complete main)\nFormat settings, Endianness    : Big\nCodec ID                       : 2000\nDuration                       : 1h 43mn\nBit rate mode                  : Constant\nBit rate                       : 448 Kbps\nChannel(s)                     : 6 channels\nChannel positions              : Front: L C R, Side: L R, LFE\nSampling rate                  : 48.0 KHz\nBit depth                      : 16 bits\nCompression mode               : Lossy\nStream size                    : 332 MiB (17%)\nAlignment                      : Split accross interleaves\nInterleave, duration           : 96 ms (2.40 video frames)\nInterleave, preload duration   : 96 ms\nLanguage                       : Serbo-Croatian\n\n\n","torrent":{"xt":"urn:btih:7d885ecb991b8c86fedd71082020a22548630bd0","amp;dn":"%E5%AE%8C%E7%BE%8E%E7%9A%84%E5%9C%93%E5%9C%88%2FSavr%26scaron%3Beni+Krug%2FThe+Perfect+Circle%2FSavrseni+krug%281997","amp;tr":["udp%3A%2F%2Ftracker.openbittorrent.com%3A80","udp%3A%2F%2Fopen.demonii.com%3A1337","udp%3A%2F%2Ftracker.coppersurfer.tk%3A6969","udp%3A%2F%2Fexodus.desync.com%3A6969"],"infoHash":"7d885ecb991b8c86fedd71082020a22548630bd0","infoHashBuffer":{"type":"Buffer","data":[125,136,94,203,153,27,140,134,254,221,113,8,32,32,162,37,72,99,11,208]},"announce":[],"urlList":[]}}